<svg id="Capa_1" enable-background="new 0 0 509.25 509.25" height="512" viewBox="0 0 509.25 509.25" width="512" xmlns="http://www.w3.org/2000/svg" style="fill:#FFFFFF;"><path d="m408.516 446.249h-.65v-348.903c0-4.142-3.357-7.5-7.5-7.5s-7.5 3.358-7.5 7.5v348.903h-276.482v-102.81c0-4.142-3.358-7.5-7.5-7.5s-7.5 3.358-7.5 7.5v102.81h-.65c-11.37 0-20.621 9.251-20.621 20.621v34.88c0 4.142 3.358 7.5 7.5 7.5h334.023c4.143 0 7.5-3.358 7.5-7.5v-34.88c.001-11.37-9.25-20.621-20.62-20.621zm5.621 48.001h-319.023v-27.38c0-3.1 2.521-5.621 5.621-5.621h307.782c3.1 0 5.621 2.522 5.621 5.621v27.38z"/><path d="m108.884 320.939c4.142 0 7.5-3.358 7.5-7.5v-289.273c0-5.054 4.112-9.166 9.166-9.166h258.15c5.054 0 9.165 4.112 9.165 9.166v43.18c0 4.142 3.357 7.5 7.5 7.5s7.5-3.358 7.5-7.5v-43.18c0-13.325-10.84-24.166-24.165-24.166h-258.15c-13.325 0-24.166 10.841-24.166 24.166v289.273c0 4.142 3.358 7.5 7.5 7.5z"/><path d="m302.227 71.443c-1.168-3.593-4.213-6.179-7.947-6.749l-21.17-3.227-9.611-19.136c0-.001-.001-.001-.001-.003-1.696-3.374-5.096-5.47-8.872-5.47-.001 0-.002 0-.003 0-3.776.001-7.175 2.098-8.87 5.473l-9.612 19.136-21.17 3.228c-3.734.569-6.779 3.155-7.946 6.748-1.167 3.592-.224 7.474 2.463 10.13l15.23 15.055-3.472 21.13c-.613 3.728.904 7.423 3.961 9.644 1.739 1.263 3.776 1.905 5.829 1.905 1.556 0 3.12-.37 4.567-1.118l19.024-9.832 19.023 9.831c3.355 1.736 7.34 1.433 10.396-.787 3.057-2.221 4.574-5.916 3.961-9.643l-3.472-21.132 15.229-15.053c2.685-2.656 3.63-6.537 2.463-10.13zm-30.106 16.361c-2.283 2.259-3.335 5.501-2.813 8.669l2.26 13.755-12.384-6.4c-2.858-1.476-6.267-1.475-9.117.001l-12.384 6.4 2.261-13.758c.52-3.17-.534-6.41-2.818-8.669l-9.914-9.8 13.779-2.101c3.177-.484 5.935-2.487 7.378-5.359l6.257-12.456 6.256 12.458c1.443 2.871 4.2 4.874 7.376 5.358l13.781 2.101z"/><path d="m290.434 189.533c6.772 0 12.281-5.509 12.281-12.281v-18.856c0-6.771-5.51-12.281-12.281-12.281h-71.618c-6.771 0-12.281 5.509-12.281 12.281v18.856c0 6.772 5.509 12.281 12.281 12.281zm-68.899-28.419h66.18v13.418h-66.18z"/><path d="m186.544 257.773c-3.047-8.096-10.85-13.883-19.999-13.883-11.79 0-21.383 9.592-21.383 21.383s9.592 21.383 21.383 21.383c9.149 0 16.951-5.786 19.999-13.883h24.313c4.142 0 7.5-3.358 7.5-7.5s-3.358-7.5-7.5-7.5zm-19.999 13.883c-3.52 0-6.383-2.863-6.383-6.383s2.863-6.383 6.383-6.383 6.383 2.863 6.383 6.383-2.863 6.383-6.383 6.383z"/></svg>