<?xml version="1.0" encoding="iso-8859-1"?>
<!-- Generator: Adobe Illustrator 19.0.0, SVG Export Plug-In . SVG Version: 6.00 Build 0)  -->
<svg version="1.1" id="Capa_1" xmlns="http://www.w3.org/2000/svg" xmlns:xlink="http://www.w3.org/1999/xlink" x="0px" y="0px"
	 viewBox="0 0 470 470" style="enable-background:new 0 0 470 470; fill:#FFFFFF;" xml:space="preserve">
<g>
	<path d="M396.915,162.004c-1.422-1.582-3.449-2.484-5.576-2.484H78.662c-2.127,0-4.154,0.903-5.576,2.484
		c-1.422,1.581-2.106,3.692-1.882,5.807l31.344,295.48c0.404,3.814,3.622,6.709,7.458,6.709h249.989
		c3.836,0,7.054-2.895,7.458-6.709l31.344-295.48C399.021,165.696,398.337,163.585,396.915,162.004z M179.615,455l-14.877-280.48
		H227.5V455H179.615z M87,174.52h62.719L164.595,455h-47.843L87,174.52z M353.248,455h-47.842l6.623-124.863
		c0.22-4.137-2.956-7.667-7.092-7.887c-4.149-0.229-7.668,2.956-7.887,7.092L290.385,455H242.5V174.52h62.761l-6.623,124.863
		c-0.22,4.137,2.956,7.667,7.092,7.887c0.136,0.007,0.27,0.011,0.404,0.011c3.96,0,7.271-3.102,7.483-7.103l6.665-125.658H383
		L353.248,455z"/>
	<path d="M235,70c-4.142,0-7.5,3.358-7.5,7.5s3.358,7.5,7.5,7.5c10.702,0,20.384,5.93,25.269,15.476
		c1.328,2.594,3.957,4.085,6.683,4.085c1.15,0,2.317-0.265,3.411-0.825c3.688-1.887,5.147-6.406,3.26-10.093
		C266.16,79.059,251.36,70,235,70z"/>
	<path d="M148.323,133.604c-1.887,3.688-0.427,8.206,3.26,10.093c1.094,0.56,2.261,0.825,3.411,0.825
		c2.726,0,5.355-1.491,6.683-4.085c4.885-9.546,14.567-15.476,25.269-15.476c4.142,0,7.5-3.358,7.5-7.5s-3.358-7.5-7.5-7.5
		C170.585,109.961,155.786,119.02,148.323,133.604z"/>
	<path d="M78.132,144.501c0.18,0.013,0.359,0.019,0.537,0.019c3.901,0,7.194-3.02,7.474-6.971c0.103-1.456,0.321-2.921,0.649-4.357
		c2.381-10.434,10.317-18.553,20.71-21.191c2.151-0.546,3.949-2.016,4.912-4.016c0.963-1.999,0.991-4.322,0.077-6.344
		c-4.417-9.771-3.017-21.038,3.655-29.404C122.818,63.87,133.492,59.997,144,62.13c2.172,0.441,4.433-0.103,6.168-1.486
		c1.735-1.384,2.768-3.464,2.822-5.683c0.259-10.72,6.409-20.263,16.051-24.907c9.643-4.644,20.938-3.502,29.481,2.979
		c1.768,1.341,4.038,1.829,6.202,1.337c2.163-0.494,3.997-1.92,5.008-3.896C214.616,20.93,224.298,15,235,15
		s20.384,5.93,25.269,15.476c1.011,1.976,2.845,3.402,5.008,3.896c2.162,0.493,4.435,0.004,6.202-1.337
		c8.542-6.482,19.838-7.623,29.48-2.979c9.642,4.644,15.792,14.187,16.051,24.907c0.054,2.218,1.087,4.299,2.822,5.683
		c1.735,1.383,3.995,1.928,6.168,1.486c10.509-2.132,21.182,1.74,27.854,10.107c6.672,8.367,8.073,19.634,3.656,29.404
		c-0.914,2.022-0.886,4.345,0.077,6.344c0.963,1.999,2.761,3.469,4.912,4.015c10.393,2.638,18.329,10.758,20.71,21.191
		c0.328,1.436,0.546,2.901,0.649,4.356c0.292,4.131,3.88,7.244,8.011,6.952c4.132-0.292,7.244-3.879,6.952-8.011
		c-0.157-2.22-0.489-4.453-0.988-6.636c-3.031-13.281-11.946-24.109-24.01-29.688c3.16-12.911,0.252-26.631-8.241-37.282
		c-8.494-10.652-21.208-16.536-34.514-16.33c-2.754-13.003-11.327-24.104-23.601-30.015c-12.273-5.911-26.297-5.693-38.181,0.262
		C261.163,6.282,248.623,0,235,0s-26.163,6.281-34.286,16.802c-11.884-5.955-25.908-6.172-38.182-0.262
		c-12.273,5.911-20.846,17.011-23.6,30.015c-13.314-0.211-26.021,5.68-34.514,16.33c-8.493,10.65-11.401,24.371-8.241,37.282
		c-12.064,5.579-20.979,16.407-24.01,29.688c-0.499,2.183-0.831,4.416-0.988,6.636C70.888,140.623,74,144.209,78.132,144.501z"/>
</g>
<g>
</g>
<g>
</g>
<g>
</g>
<g>
</g>
<g>
</g>
<g>
</g>
<g>
</g>
<g>
</g>
<g>
</g>
<g>
</g>
<g>
</g>
<g>
</g>
<g>
</g>
<g>
</g>
<g>
</g>
</svg>
